<?xml version="1.0" standalone="no"?>
<!DOCTYPE svg PUBLIC "-//W3C//DTD SVG 20010904//EN"
 "http://www.w3.org/TR/2001/REC-SVG-20010904/DTD/svg10.dtd">
<svg version="1.0" xmlns="http://www.w3.org/2000/svg"
 width="3457.000000pt" height="1772.000000pt" viewBox="0 0 3457.000000 1772.000000"
 preserveAspectRatio="xMidYMid meet">

<g transform="translate(0.000000,1772.000000) scale(0.100000,-0.100000)"
fill="#E30613" stroke="none">
<path d="M8630 17709 c-238 -30 -464 -116 -680 -260 -124 -82 -350 -307 -447
-444 -217 -307 -358 -669 -430 -1107 -16 -95 -18 -305 -20 -2556 l-3 -2454
-48 6 c-259 32 -2196 45 -2652 18 -1111 -65 -1755 -186 -2195 -413 -222 -114
-501 -307 -695 -481 -843 -755 -1302 -1863 -1424 -3443 -51 -650 -46 -1675 10
-2325 144 -1678 707 -2855 1708 -3568 153 -109 377 -242 501 -296 611 -267
1600 -386 3225 -386 1475 0 2434 101 3055 321 454 161 979 552 1346 1002 629
770 956 1783 1050 3252 7 118 12 2170 16 6658 l5 6487 -1128 -1 c-621 -1
-1158 -5 -1194 -10z m-2660 -9884 c266 -29 481 -85 588 -155 277 -179 420
-576 472 -1315 30 -424 21 -1547 -15 -1933 -56 -588 -186 -944 -409 -1124
-177 -143 -531 -208 -1131 -208 -479 0 -781 39 -999 130 -305 128 -474 510
-541 1225 -42 452 -45 1569 -5 2030 64 736 238 1116 572 1249 144 57 381 99
657 116 187 12 636 3 811 -15z"/>
<path d="M28275 10924 c-1006 -41 -1603 -117 -2096 -265 -330 -99 -643 -270
-964 -525 -141 -112 -436 -407 -549 -549 -396 -496 -682 -1130 -851 -1884 -87
-392 -140 -792 -177 -1346 -17 -261 -17 -1490 0 -1760 80 -1249 307 -2109 748
-2842 349 -580 871 -1067 1439 -1343 440 -213 1128 -336 2190 -390 336 -18
1412 -24 1825 -11 1055 33 1788 129 2275 298 442 154 930 496 1291 906 638
723 1005 1721 1118 3037 56 650 61 1675 10 2325 -101 1311 -429 2279 -1023
3024 -106 134 -385 413 -516 517 -367 293 -659 450 -1040 559 -413 119 -893
185 -1710 236 -156 10 -1784 20 -1970 13z m1310 -3099 c356 -38 543 -99 676
-223 256 -237 369 -667 399 -1517 25 -715 1 -1529 -55 -1907 -81 -535 -248
-848 -511 -958 -218 -91 -520 -130 -999 -130 -483 0 -779 39 -996 129 -311
129 -489 538 -548 1253 -33 395 -39 1493 -11 1878 53 741 193 1136 465 1316
134 89 411 151 774 174 185 12 635 3 806 -15z"/>
<path d="M16082 10879 c-1017 -35 -1720 -157 -2142 -369 -195 -98 -431 -253
-614 -404 -891 -733 -1387 -1860 -1521 -3451 -63 -749 -56 -1810 15 -2530 178
-1778 836 -2972 2012 -3644 495 -283 1197 -424 2343 -472 557 -23 869 9 1225
127 448 148 794 417 1054 817 71 108 182 338 230 475 55 157 116 412 116 487
0 23 3 27 10 15 5 -8 10 -33 10 -56 0 -22 9 -90 20 -150 77 -430 289 -849 590
-1166 298 -316 660 -500 1075 -548 56 -6 490 -10 1148 -10 l1057 0 0 3969 c0
2628 -3 4004 -10 4072 -112 1129 -854 2117 -1935 2577 -240 102 -500 178 -760
223 -282 48 -302 49 -2060 47 -907 -1 -1746 -5 -1863 -9z m1603 -3049 c247
-23 477 -76 596 -135 283 -144 443 -534 505 -1235 21 -247 31 -1310 15 -1670
-29 -632 -104 -1014 -252 -1276 -57 -103 -182 -230 -264 -272 -201 -100 -459
-141 -947 -149 -780 -13 -1148 72 -1332 307 -171 218 -266 556 -317 1125 -17
189 -24 1456 -10 1724 46 859 205 1291 536 1451 144 70 402 121 705 140 171
10 609 5 765 -10z"/>
</g>
</svg>